# This file uses centimeters as units for non-parametric coordinates.

mtllib Rounded_Sphere.mtl
g default
v -0.794456 -0.916176 0.882000
v 0.991740 -0.941788 0.970863
v -0.986313 0.938464 0.853861
v 1.123189 0.876343 0.690659
v -1.441974 1.064075 -0.904951
v 0.827898 0.938464 -0.960350
v -0.721141 -0.899515 -0.896308
v 0.938670 -0.927993 -0.884931
v -1.537647 1.320662 0.038627
v 1.145736 0.000000 -1.145736
v 0.153952 -1.158384 -1.120954
v -1.145736 -0.000000 -1.145736
v 1.210011 -1.133432 -0.055062
v -0.892809 -1.158798 -0.061335
v 0.163250 -1.133846 1.004557
v 1.145736 -0.000000 1.145736
v 0.049593 1.154610 1.057731
v -1.145736 0.000000 1.145736
v 1.195329 1.154610 -0.088005
v -0.391911 1.320662 -1.107109
v 0.000000 -0.000000 1.564757
v -0.262220 1.735093 0.072777
v 0.000000 -0.000000 -1.564757
v 0.254998 -1.540757 -0.191833
v 1.564757 -0.000000 0.000000
v -1.564757 -0.000000 -0.000000
v -0.548499 -0.602270 1.412953
v 0.638507 -0.629620 1.475461
v 0.800177 0.545822 1.162589
v -0.503574 0.569698 1.269330
v -0.769163 1.474550 0.603182
v 0.542495 1.405067 0.551131
v 0.393581 1.474550 -0.559563
v -1.038377 1.616992 -0.493541
v -0.981460 0.663885 -1.377325
v 0.410825 0.617074 -1.379194
v 0.606751 -0.589717 -1.354624
v -0.473807 -0.567845 -1.362334
v -0.311556 -1.380570 -0.607577
v 0.712835 -1.348952 -0.646953
v 0.736705 -1.308039 0.370589
v -0.305806 -1.356571 0.376975
v 1.404530 -0.635473 0.696404
v 1.360479 -0.616855 -0.528506
v 1.438457 0.569698 -0.672700
v 1.579464 0.545822 0.383303
v -1.239830 -0.561992 -0.583277
v -1.302227 -0.575132 0.586835
v -1.531206 0.617074 0.562836
v -1.760747 0.663885 -0.598039
v 0.047517 -0.663265 1.552565
v 0.624666 -0.000000 1.459615
v 0.176288 0.596063 1.299175
v -0.624666 0.000000 1.459615
v -0.130757 1.547975 0.642561
v 0.493909 1.547975 0.017895
v -0.347985 1.672566 -0.545921
v -0.972651 1.672565 0.078745
v -0.323507 0.691407 -1.473562
v 0.624666 0.000000 -1.459615
v 0.072261 -0.620430 -1.460453
v -0.624666 -0.000000 -1.459615
v 0.220357 -1.464117 -0.676931
v 0.777712 -1.413474 -0.177040
v 0.241263 -1.419348 0.360329
v -0.316092 -1.469991 -0.139561
v 1.480440 -0.675043 0.093411
v 1.459615 -0.000000 -0.624666
v 1.635903 0.596063 -0.160440
v 1.459615 0.000000 0.624666
v -1.360662 -0.608651 -0.001299
v -1.459615 -0.000000 0.624666
v -1.783122 0.691407 -0.013946
v -1.459615 0.000000 -0.624666
v -0.375076 -1.071347 0.963060
v 0.657859 -1.062965 1.002234
v 1.121523 -0.589088 1.184136
v 1.288675 0.502110 0.864623
v 0.664756 1.056793 0.922422
v -0.551606 1.091235 1.003844
v -1.100810 0.546868 1.026688
v -1.033927 -0.543639 1.088017
v 1.193557 1.056793 0.393621
v 1.053353 1.091235 -0.601115
v 0.315785 1.160631 -1.069728
v -1.045024 1.267416 -1.028663
v -1.573825 1.267416 -0.499862
v -1.289173 1.160631 0.535230
v 1.032950 0.546868 -1.107071
v 1.066221 -0.558470 -1.045161
v 0.622019 -1.078053 -1.056536
v -0.342962 -1.075020 -1.040955
v -0.947467 -0.520316 -1.068304
v -1.474440 0.622170 -1.084667
v 1.113348 -1.074414 -0.547307
v 1.148265 -1.063976 0.504599
v -0.866406 -1.074986 0.453831
v -0.833368 -1.074010 -0.543320
vt 0.375000 0.000000
vt 0.375000 1.000000
vt 0.625000 0.000000
vt 0.625000 1.000000
vt 0.375000 0.250000
vt 0.625000 0.250000
vt 0.375000 0.500000
vt 0.125000 0.250000
vt 0.625000 0.500000
vt 0.875000 0.250000
vt 0.375000 0.750000
vt 0.125000 0.000000
vt 0.625000 0.750000
vt 0.875000 0.000000
vt 0.500000 0.125000
vt 0.500000 0.375000
vt 0.500000 0.625000
vt 0.500000 0.875000
vt 0.750000 0.125000
vt 0.250000 0.125000
vt 0.500000 0.000000
vt 0.500000 1.000000
vt 0.625000 0.125000
vt 0.500000 0.250000
vt 0.375000 0.125000
vt 0.625000 0.375000
vt 0.750000 0.250000
vt 0.500000 0.500000
vt 0.375000 0.375000
vt 0.250000 0.250000
vt 0.625000 0.625000
vt 0.875000 0.125000
vt 0.500000 0.750000
vt 0.375000 0.625000
vt 0.125000 0.125000
vt 0.625000 0.875000
vt 0.750000 0.000000
vt 0.375000 0.875000
vt 0.250000 0.000000
vt 0.437500 0.062500
vt 0.562500 0.062500
vt 0.562500 0.187500
vt 0.437500 0.187500
vt 0.437500 0.312500
vt 0.562500 0.312500
vt 0.562500 0.437500
vt 0.437500 0.437500
vt 0.437500 0.562500
vt 0.562500 0.562500
vt 0.562500 0.687500
vt 0.437500 0.687500
vt 0.437500 0.812500
vt 0.562500 0.812500
vt 0.562500 0.937500
vt 0.437500 0.937500
vt 0.687500 0.062500
vt 0.812500 0.062500
vt 0.812500 0.187500
vt 0.687500 0.187500
vt 0.187500 0.062500
vt 0.312500 0.062500
vt 0.312500 0.187500
vt 0.187500 0.187500
vt 0.500000 0.062500
vt 0.562500 0.125000
vt 0.500000 0.187500
vt 0.437500 0.125000
vt 0.500000 0.312500
vt 0.562500 0.375000
vt 0.500000 0.437500
vt 0.437500 0.375000
vt 0.500000 0.562500
vt 0.562500 0.625000
vt 0.500000 0.687500
vt 0.437500 0.625000
vt 0.500000 0.812500
vt 0.562500 0.875000
vt 0.500000 0.937500
vt 0.437500 0.875000
vt 0.750000 0.062500
vt 0.812500 0.125000
vt 0.750000 0.187500
vt 0.687500 0.125000
vt 0.250000 0.062500
vt 0.312500 0.125000
vt 0.250000 0.187500
vt 0.187500 0.125000
vt 0.437500 0.000000
vt 0.437500 1.000000
vt 0.562500 0.000000
vt 0.562500 1.000000
vt 0.625000 0.062500
vt 0.625000 0.187500
vt 0.562500 0.250000
vt 0.437500 0.250000
vt 0.375000 0.187500
vt 0.375000 0.062500
vt 0.625000 0.312500
vt 0.687500 0.250000
vt 0.625000 0.437500
vt 0.812500 0.250000
vt 0.562500 0.500000
vt 0.437500 0.500000
vt 0.375000 0.437500
vt 0.187500 0.250000
vt 0.375000 0.312500
vt 0.312500 0.250000
vt 0.625000 0.562500
vt 0.875000 0.187500
vt 0.625000 0.687500
vt 0.875000 0.062500
vt 0.562500 0.750000
vt 0.437500 0.750000
vt 0.375000 0.687500
vt 0.125000 0.062500
vt 0.375000 0.562500
vt 0.125000 0.187500
vt 0.625000 0.812500
vt 0.812500 0.000000
vt 0.625000 0.937500
vt 0.687500 0.000000
vt 0.375000 0.937500
vt 0.312500 0.000000
vt 0.375000 0.812500
vt 0.187500 0.000000
vn -0.502522 -0.730847 0.461882
vn -0.254571 -0.813456 0.522956
vn -0.339806 -0.410396 0.846231
vn -0.662859 -0.407606 0.628073
vn -0.005548 -0.839774 0.542907
vn -0.035519 -0.416640 0.908378
vn -0.008571 0.183509 0.982981
vn -0.329561 0.122717 0.936125
vn -0.679912 0.001219 0.733293
vn 0.234737 -0.810170 0.537144
vn 0.294711 -0.323971 0.898993
vn 0.508225 -0.700231 0.501381
vn 0.681574 -0.223880 0.696659
vn 0.683082 0.110191 0.721981
vn 0.315251 0.190186 0.929756
vn 0.373667 0.403098 0.835395
vn 0.081424 0.412873 0.907142
vn 0.704799 0.299344 0.643158
vn 0.581217 0.579704 0.571078
vn 0.361544 0.606030 0.708529
vn 0.075460 0.593235 0.801485
vn -0.225721 0.383831 0.895390
vn -0.585111 0.277347 0.762052
vn -0.223973 0.534631 0.814866
vn -0.473060 0.445046 0.760361
vn -0.276677 0.779370 0.562167
vn -0.628879 0.522700 0.575583
vn 0.065903 0.869055 0.490306
vn 0.078149 0.993028 0.088250
vn -0.314207 0.931730 0.182081
vn -0.756554 0.611911 0.230632
vn 0.364563 0.849654 0.381027
vn 0.638872 0.714841 0.284333
vn 0.636919 0.768839 -0.056749
vn 0.366608 0.930295 0.012231
vn 0.327366 0.878529 -0.347876
vn 0.065593 0.939389 -0.336520
vn 0.571201 0.723824 -0.387049
vn 0.462553 0.602459 -0.650452
vn 0.265243 0.663417 -0.699660
vn 0.023383 0.691794 -0.721717
vn -0.297161 0.911792 -0.283426
vn -0.765834 0.605202 -0.217324
vn -0.280573 0.654631 -0.701952
vn -0.630718 0.482143 -0.608057
vn -0.330613 0.184393 -0.925578
vn -0.723658 -0.044417 -0.688728
vn -0.011379 0.319851 -0.947399
vn 0.019262 -0.002847 -0.999810
vn -0.312966 -0.123942 -0.941642
vn -0.660176 -0.291766 -0.692128
vn 0.263015 0.350949 -0.898698
vn 0.582055 0.319970 -0.747550
vn 0.684623 -0.023630 -0.728514
vn 0.342813 0.028782 -0.938963
vn 0.349828 -0.313843 -0.882679
vn -0.005027 -0.357430 -0.933926
vn 0.693078 -0.292475 -0.658864
vn 0.630831 -0.497329 -0.595580
vn 0.349901 -0.612503 -0.708808
vn -0.008792 -0.683246 -0.730136
vn -0.332921 -0.386774 -0.859983
vn -0.635870 -0.431257 -0.640068
vn -0.331853 -0.673385 -0.660626
vn -0.558193 -0.621745 -0.549412
vn -0.340696 -0.875029 -0.343876
vn -0.632197 -0.709218 -0.311989
vn 0.016513 -0.923474 -0.383305
vn 0.050051 -0.998329 0.028872
vn -0.310895 -0.950258 0.018842
vn -0.635515 -0.771944 -0.014947
vn 0.394550 -0.839083 -0.374526
vn 0.729227 -0.593066 -0.341322
vn 0.731304 -0.681754 -0.020135
vn 0.391822 -0.920007 0.007890
vn 0.305427 -0.908361 0.285649
vn 0.041156 -0.948295 0.314711
vn 0.637126 -0.723242 0.266442
vn -0.252325 -0.920766 0.297526
vn -0.580042 -0.775650 0.248832
vn 0.907198 -0.261787 0.329331
vn 0.954450 -0.298365 -0.001819
vn 0.992228 -0.119860 -0.033433
vn 0.939768 -0.038669 0.339618
vn 0.898426 -0.290872 -0.328974
vn 0.916958 -0.103130 -0.385425
vn 0.842807 0.295658 -0.449736
vn 0.951552 0.289648 -0.103210
vn 0.930286 0.245182 0.272864
vn -0.817555 -0.474233 -0.326660
vn -0.869599 -0.493035 -0.026710
vn -0.953200 -0.300198 0.035936
vn -0.879386 -0.361341 -0.310021
vn -0.841531 -0.461971 0.280016
vn -0.909157 -0.163405 0.383056
vn -0.862065 0.114796 0.493626
vn -0.988208 0.019802 0.151829
vn -0.963994 -0.075654 -0.254935
s 1
g pCube1
usemtl initialShadingGroup
f 1/1/1 75/88/2 27/40/3 82/97/4
f 75/88/2 15/21/5 51/64/6 27/40/3
f 27/40/3 51/64/6 21/15/7 54/67/8
f 82/97/4 27/40/3 54/67/8 18/25/9
f 15/21/5 76/90/10 28/41/11 51/64/6
f 76/90/10 2/3/12 77/92/13 28/41/11
f 28/41/11 77/92/13 16/23/14 52/65/15
f 51/64/6 28/41/11 52/65/15 21/15/7
f 21/15/7 52/65/15 29/42/16 53/66/17
f 52/65/15 16/23/14 78/93/18 29/42/16
f 29/42/16 78/93/18 4/6/19 79/94/20
f 53/66/17 29/42/16 79/94/20 17/24/21
f 18/25/9 54/67/8 30/43/22 81/96/23
f 54/67/8 21/15/7 53/66/17 30/43/22
f 30/43/22 53/66/17 17/24/21 80/95/24
f 81/96/23 30/43/22 80/95/24 3/5/25
f 3/5/25 80/95/24 31/44/26 88/106/27
f 80/95/24 17/24/21 55/68/28 31/44/26
f 31/44/26 55/68/28 22/16/29 58/71/30
f 88/106/27 31/44/26 58/71/30 9/29/31
f 17/24/21 79/94/20 32/45/32 55/68/28
f 79/94/20 4/6/19 83/98/33 32/45/32
f 32/45/32 83/98/33 19/26/34 56/69/35
f 55/68/28 32/45/32 56/69/35 22/16/29
f 22/16/29 56/69/35 33/46/36 57/70/37
f 56/69/35 19/26/34 84/100/38 33/46/36
f 33/46/36 84/100/38 6/9/39 85/102/40
f 57/70/37 33/46/36 85/102/40 20/28/41
f 9/29/31 58/71/30 34/47/42 87/104/43
f 58/71/30 22/16/29 57/70/37 34/47/42
f 34/47/42 57/70/37 20/28/41 86/103/44
f 87/104/43 34/47/42 86/103/44 5/7/45
f 5/7/45 86/103/44 35/48/46 94/116/47
f 86/103/44 20/28/41 59/72/48 35/48/46
f 35/48/46 59/72/48 23/17/49 62/75/50
f 94/116/47 35/48/46 62/75/50 12/34/51
f 20/28/41 85/102/40 36/49/52 59/72/48
f 85/102/40 6/9/39 89/108/53 36/49/52
f 36/49/52 89/108/53 10/31/54 60/73/55
f 59/72/48 36/49/52 60/73/55 23/17/49
f 23/17/49 60/73/55 37/50/56 61/74/57
f 60/73/55 10/31/54 90/110/58 37/50/56
f 37/50/56 90/110/58 8/13/59 91/112/60
f 61/74/57 37/50/56 91/112/60 11/33/61
f 12/34/51 62/75/50 38/51/62 93/114/63
f 62/75/50 23/17/49 61/74/57 38/51/62
f 38/51/62 61/74/57 11/33/61 92/113/64
f 93/114/63 38/51/62 92/113/64 7/11/65
f 7/11/65 92/113/64 39/52/66 98/124/67
f 92/113/64 11/33/61 63/76/68 39/52/66
f 39/52/66 63/76/68 24/18/69 66/79/70
f 98/124/67 39/52/66 66/79/70 14/38/71
f 11/33/61 91/112/60 40/53/72 63/76/68
f 91/112/60 8/13/59 95/118/73 40/53/72
f 40/53/72 95/118/73 13/36/74 64/77/75
f 63/76/68 40/53/72 64/77/75 24/18/69
f 24/18/69 64/77/75 41/54/76 65/78/77
f 64/77/75 13/36/74 96/120/78 41/54/76
f 41/54/76 96/120/78 2/4/12 76/91/10
f 65/78/77 41/54/76 76/91/10 15/22/5
f 14/38/71 66/79/70 42/55/79 97/122/80
f 66/79/70 24/18/69 65/78/77 42/55/79
f 42/55/79 65/78/77 15/22/5 75/89/2
f 97/122/80 42/55/79 75/89/2 1/2/1
f 2/3/12 96/121/78 43/56/81 77/92/13
f 96/121/78 13/37/74 67/80/82 43/56/81
f 43/56/81 67/80/82 25/19/83 70/83/84
f 77/92/13 43/56/81 70/83/84 16/23/14
f 13/37/74 95/119/73 44/57/85 67/80/82
f 95/119/73 8/14/59 90/111/58 44/57/85
f 44/57/85 90/111/58 10/32/54 68/81/86
f 67/80/82 44/57/85 68/81/86 25/19/83
f 25/19/83 68/81/86 45/58/87 69/82/88
f 68/81/86 10/32/54 89/109/53 45/58/87
f 45/58/87 89/109/53 6/10/39 84/101/38
f 69/82/88 45/58/87 84/101/38 19/27/34
f 16/23/14 70/83/84 46/59/89 78/93/18
f 70/83/84 25/19/83 69/82/88 46/59/89
f 46/59/89 69/82/88 19/27/34 83/99/33
f 78/93/18 46/59/89 83/99/33 4/6/19
f 7/12/65 98/125/67 47/60/90 93/115/63
f 98/125/67 14/39/71 71/84/91 47/60/90
f 47/60/90 71/84/91 26/20/92 74/87/93
f 93/115/63 47/60/90 74/87/93 12/35/51
f 14/39/71 97/123/80 48/61/94 71/84/91
f 97/123/80 1/1/1 82/97/4 48/61/94
f 48/61/94 82/97/4 18/25/9 72/85/95
f 71/84/91 48/61/94 72/85/95 26/20/92
f 26/20/92 72/85/95 49/62/96 73/86/97
f 72/85/95 18/25/9 81/96/23 49/62/96
f 49/62/96 81/96/23 3/5/25 88/107/27
f 73/86/97 49/62/96 88/107/27 9/30/31
f 12/35/51 74/87/93 50/63/98 94/117/47
f 74/87/93 26/20/92 73/86/97 50/63/98
f 50/63/98 73/86/97 9/30/31 87/105/43
f 94/117/47 50/63/98 87/105/43 5/8/45
