# This file uses centimeters as units for non-parametric coordinates.

mtllib Water_Plane.mtl
g default
v -38.946501 -0.000000 26.626050
v -25.967189 -0.000000 20.169154
v -12.987882 -0.000000 15.694579
v -0.008575 -0.000000 13.893179
v 12.970741 -0.000000 15.694579
v 25.950039 -0.000000 20.169154
v 38.929345 -0.000000 26.626050
v -38.946501 -0.000000 7.272253
v -25.967189 -0.000000 0.815347
v -12.987882 -0.000000 -3.659244
v -0.008575 -0.000000 -5.460646
v 12.970741 -0.000000 -3.659244
v 25.950039 -0.000000 0.815350
v 38.929345 -0.000000 7.272253
v -38.946501 -0.000000 -13.989380
v -25.967189 -0.000000 -20.446284
v -12.987882 -0.000000 -24.920865
v -0.008575 -0.000000 -26.722283
v 12.970741 -0.000000 -24.920865
v 25.950039 -0.000000 -20.446278
v 38.929345 -0.000000 -13.989380
vt 0.000000 0.000000
vt 0.168332 0.000000
vt 0.336153 0.000000
vt 0.503284 0.000000
vt 0.669486 0.000000
vt 0.834999 0.000000
vt 1.000000 0.000000
vt 0.000000 0.374148
vt 0.168332 0.374148
vt 0.336153 0.374148
vt 0.503284 0.374148
vt 0.669486 0.374148
vt 0.834999 0.374148
vt 1.000000 0.374148
vt 0.000000 0.785177
vt 0.168332 0.785177
vt 0.336153 0.785177
vt 0.503284 0.785177
vt 0.669486 0.785177
vt 0.834999 0.785177
vt 1.000000 0.785177
vn 0.000000 1.000000 0.000000
vn -0.000000 1.000000 0.000000
vn -0.000000 1.000000 0.000000
vn 0.000000 1.000000 0.000000
vn 0.000000 1.000000 0.000000
vn 0.000000 1.000000 0.000000
vn 0.000000 1.000000 0.000000
vn 0.000000 1.000000 0.000000
vn -0.000000 1.000000 0.000000
vn -0.000000 1.000000 0.000000
vn 0.000000 1.000000 0.000000
vn 0.000000 1.000000 0.000000
vn -0.000000 1.000000 0.000000
vn -0.000000 1.000000 0.000000
vn -0.000000 1.000000 0.000000
vn 0.000000 1.000000 0.000000
vn 0.000000 1.000000 0.000000
vn -0.000000 1.000000 0.000000
vn -0.000000 1.000000 0.000000
vn 0.000000 1.000000 0.000000
vn -0.000000 1.000000 0.000000
s 1
g pPlane1
usemtl initialShadingGroup
f 1/1/1 2/2/2 9/9/3 8/8/4
f 2/2/2 3/3/5 10/10/6 9/9/3
f 3/3/5 4/4/7 11/11/8 10/10/6
f 4/4/7 5/5/9 12/12/10 11/11/8
f 5/5/9 6/6/11 13/13/12 12/12/10
f 6/6/11 7/7/13 14/14/14 13/13/12
f 8/8/4 9/9/3 16/16/15 15/15/16
f 9/9/3 10/10/6 17/17/17 16/16/15
f 10/10/6 11/11/8 18/18/18 17/17/17
f 11/11/8 12/12/10 19/19/19 18/18/18
f 12/12/10 13/13/12 20/20/20 19/19/19
f 13/13/12 14/14/14 21/21/21 20/20/20
